<svg width="128" height="128" viewBox="0 0 128 128" fill="none" xmlns="http://www.w3.org/2000/svg">
<path fill-rule="evenodd" clip-rule="evenodd" d="M64 48C56.8 48 52.3 51.6 50.5 58.8C53.2 55.2 56.35 53.85 59.95 54.75C62.004 55.263 63.472 56.754 65.097 58.403C67.744 61.09 70.808 64.2 77.5 64.2C84.7 64.2 89.2 60.6 91 53.4C88.3 57 85.15 58.35 81.55 57.45C79.496 56.937 78.028 55.446 76.403 53.797C73.756 51.11 70.692 48 64 48ZM50.5 64.2C43.3 64.2 38.8 67.8 37 75C39.7 71.4 42.85 70.05 46.45 70.95C48.504 71.464 49.972 72.954 51.597 74.603C54.244 77.29 57.308 80.4 64 80.4C71.2 80.4 75.7 76.8 77.5 69.6C74.8 73.2 71.65 74.55 68.05 73.65C65.996 73.137 64.528 71.646 62.903 69.997C60.256 67.31 57.192 64.2 50.5 64.2Z" fill="#06B6D4"/>
<path d="M96 42.6667L121.6 64L96 85.3333" stroke="#64748B" stroke-width="6" stroke-linecap="round" stroke-linejoin="round"/>
<path d="M32 42.6667L6.4 64L32 85.3333" stroke="#64748B" stroke-width="6" stroke-linecap="round" stroke-linejoin="round"/>
</svg>
